Coordinates
version=1
nRows=37
nColumns=38
inDegrees=no

Units are S.I. units (second, meters, Newtons, ...)
If the header above contains a line with 'inDegrees', this indicates whether rotational values are in degrees (yes) or radians (no).

endheader
time	pelvis_tilt	pelvis_list	pelvis_rotation	pelvis_tx	pelvis_ty	pelvis_tz	hip_flexion_r	hip_adduction_r	hip_rotation_r	knee_angle_r	ankle_angle_r	subtalar_angle_r	mtp_angle_r	hip_flexion_l	hip_adduction_l	hip_rotation_l	knee_angle_l	ankle_angle_l	subtalar_angle_l	mtp_angle_l	lumbar_extension	lumbar_bending	lumbar_rotation	arm_flex_r	arm_add_r	arm_rot_r	elbow_flex_r	pro_sup_r	wrist_flex_r	wrist_dev_r	arm_flex_l	arm_add_l	arm_rot_l	elbow_flex_l	pro_sup_l	wrist_flex_l	wrist_dev_l
1.55	-0.746468	1.37636	2.39749	0.59174	0.562733	1.01288	0.79283	-0.153932	0.2781	1.3125	-0.246596	0	0	0.0872141	0.167236	-0.16636	0.197408	-0.146033	0	0	-0.0816507	-0.169187	0.103134	0.059152	-0.535871	0.860031	0.798518	0.793378	0	0	0.0222849	-0.422901	0.566987	0.772682	1.00196	0	0
1.56	-0.744799	1.3755	2.39769	0.590025	0.571571	1.01211	0.805066	-0.152582	0.279152	1.2883	-0.235192	0	0	0.0768236	0.168879	-0.165355	0.195663	-0.141435	0	0	-0.0833359	-0.169216	0.103006	0.0603547	-0.537869	0.858964	0.800119	0.793044	0	0	0.0277593	-0.423079	0.573267	0.773281	0.998923	0	0
1.57	-0.740362	1.37404	2.39552	0.588311	0.580512	1.01114	0.817318	-0.151961	0.279015	1.26375	-0.226028	0	0	0.0678705	0.170373	-0.164437	0.195311	-0.138823	0	0	-0.0854047	-0.169532	0.101541	0.0598958	-0.538667	0.852219	0.801896	0.799754	0	0	0.0302689	-0.422088	0.571284	0.774901	1.00416	0	0
1.58	-0.7362	1.37203	2.39313	0.586727	0.589551	1.01	0.82987	-0.151823	0.279549	1.23906	-0.214348	0	0	0.0596532	0.172081	-0.164174	0.195743	-0.134019	0	0	-0.085473	-0.1702	0.0998212	0.063005	-0.539757	0.856088	0.801463	0.79461	0	0	0.0325007	-0.421793	0.572979	0.775006	1.0026	0	0
1.59	-0.732275	1.36955	2.39041	0.585266	0.598692	1.00871	0.842559	-0.151843	0.280389	1.21427	-0.202152	0	0	0.0524433	0.17371	-0.165866	0.198014	-0.128033	0	0	-0.0850327	-0.171459	0.0990092	0.0660262	-0.540597	0.861245	0.800353	0.789476	0	0	0.034694	-0.421405	0.574812	0.774567	1.00119	0	0
1.6	-0.72781	1.3666	2.3868	0.583894	0.607942	1.00727	0.85503	-0.151698	0.280343	1.18938	-0.190696	0	0	0.0456964	0.175393	-0.168274	0.20089	-0.121984	0	0	-0.0840934	-0.173027	0.0984657	0.0685124	-0.541362	0.865666	0.799654	0.78572	0	0	0.0361873	-0.420976	0.575309	0.774445	1.00059	0	0
1.61	-0.722803	1.36313	2.38218	0.582598	0.617302	1.00568	0.868051	-0.151781	0.280541	1.16486	-0.180722	0	0	0.0395344	0.177268	-0.171674	0.204202	-0.115692	0	0	-0.0825687	-0.174899	0.0982888	0.0701154	-0.542594	0.868241	0.800445	0.781491	0	0	0.0367449	-0.420857	0.574599	0.77551	1.00065	0	0
1.62	-0.71907	1.35926	2.37778	0.581453	0.626699	1.00394	0.881467	-0.151662	0.281573	1.14074	-0.17216	0	0	0.0344418	0.179108	-0.177844	0.209568	-0.107451	0	0	-0.0838807	-0.177379	0.111228	0.0482317	-0.544723	0.824931	0.811824	0.805691	0	0	0.0509144	-0.420539	0.59451	0.77376	0.995928	0	0
1.63	-0.714534	1.35487	2.37142	0.580482	0.636093	1.00202	0.895529	-0.150741	0.28223	1.11781	-0.163746	0	0	0.0313318	0.180421	-0.187138	0.21791	-0.0972429	0	0	-0.0799615	-0.179876	0.102691	0.0661089	-0.546844	0.857952	0.809544	0.785446	0	0	0.0370764	-0.420748	0.569649	0.781771	1.00719	0	0
1.64	-0.706856	1.34964	2.36267	0.579468	0.645628	0.999921	0.910318	-0.150902	0.280835	1.09655	-0.154487	0	0	0.0290815	0.182046	-0.193695	0.225338	-0.0902441	0	0	-0.0765132	-0.182417	0.104496	0.0636613	-0.548848	0.854077	0.814128	0.789047	0	0	0.0361922	-0.421145	0.567342	0.785161	1.00907	0	0
1.65	-0.6979	1.34443	2.35341	0.578399	0.655403	0.997758	0.924071	-0.151246	0.278799	1.07678	-0.142138	0	0	0.0268761	0.183315	-0.19971	0.232988	-0.0836962	0	0	-0.0726224	-0.184469	0.105692	0.0602305	-0.550532	0.848959	0.818528	0.791432	0	0	0.0347941	-0.421436	0.564992	0.788027	1.01057	0	0
1.66	-0.689711	1.33933	2.34477	0.577436	0.665335	0.995528	0.937477	-0.151693	0.27769	1.0596	-0.124488	0	0	0.0254197	0.184005	-0.207891	0.243302	-0.0756154	0	0	-0.0688979	-0.186499	0.10719	0.0555881	-0.551891	0.841165	0.82323	0.793091	0	0	0.0331138	-0.421819	0.562621	0.790749	1.01257	0	0
1.67	-0.683313	1.33447	2.33821	0.576506	0.675451	0.993334	0.949367	-0.152626	0.276605	1.04398	-0.104359	0	0	0.0224535	0.185483	-0.211829	0.250704	-0.0728551	0	0	-0.0635524	-0.188408	0.107897	0.0542978	-0.553277	0.84321	0.825269	0.788107	0	0	0.0317459	-0.42309	0.564972	0.7916	1.00825	0	0
1.68	-0.673839	1.32987	2.32962	0.575513	0.685854	0.99105	0.960087	-0.153591	0.273871	1.03095	-0.0782087	0	0	0.0220638	0.185113	-0.219598	0.264528	-0.0641932	0	0	-0.0586435	-0.189506	0.10675	0.0520171	-0.55413	0.842315	0.827936	0.78738	0	0	0.0273214	-0.423279	0.559494	0.793538	1.01188	0	0
1.69	-0.661763	1.32552	2.32006	0.574371	0.696604	0.988745	0.969932	-0.155461	0.268871	1.02142	-0.0521343	0	0	0.0217101	0.184087	-0.225248	0.278522	-0.0555041	0	0	-0.0530379	-0.189686	0.103962	0.048868	-0.554861	0.840972	0.830813	0.787787	0	0	0.0219433	-0.42346	0.553757	0.795183	1.01513	0	0
1.7	-0.655356	1.3226	2.31499	0.5735	0.707518	0.986593	0.977291	-0.155936	0.264784	1.01476	-0.029558	0	0	0.0182952	0.182962	-0.23114	0.290844	-0.0472521	0	0	-0.0489636	-0.189801	0.102831	0.0456946	-0.556325	0.840606	0.834495	0.789108	0	0	0.0174313	-0.423941	0.549526	0.797106	1.01739	0	0
1.71	-0.653022	1.32129	2.31334	0.572817	0.718671	0.984633	0.981405	-0.155252	0.261369	1.01013	-0.0107127	0	0	0.0122518	0.181157	-0.237833	0.302168	-0.0401355	0	0	-0.0467315	-0.189391	0.10224	0.0422173	-0.55826	0.839572	0.839319	0.790605	0	0	0.0130992	-0.424782	0.545912	0.799644	1.01935	0	0
1.72	-0.65072	1.32104	2.31245	0.572207	0.73013	0.982828	0.982776	-0.15439	0.258527	1.00806	0.00453795	0	0	0.00489457	0.178356	-0.242775	0.313101	-0.0347171	0	0	-0.0451186	-0.188209	0.100891	0.0380019	-0.559646	0.837205	0.844061	0.792007	0	0	0.00842787	-0.425782	0.542528	0.802016	1.02032	0	0
1.73	-0.647576	1.32207	2.31142	0.571665	0.741924	0.981121	0.980828	-0.152881	0.257247	1.00734	0.0178865	0	0	-0.00214392	0.17323	-0.250312	0.328159	-0.026252	0	0	-0.0481918	-0.186006	0.113258	0.00529114	-0.559669	0.781254	0.858891	0.824845	0	0	0.0198528	-0.425996	0.56186	0.799262	1.01755	0	0
1.74	-0.644915	1.3244	2.31072	0.571193	0.753994	0.979579	0.975232	-0.149555	0.257291	1.00745	0.0227665	0	0	-0.0105605	0.166995	-0.257351	0.342978	-0.0193113	0	0	-0.0466631	-0.182906	0.100956	0.0182799	-0.560946	0.809999	0.856967	0.807712	0	0	0.00146569	-0.425681	0.535753	0.804721	1.02933	0	0
1.75	-0.644431	1.32799	2.31193	0.570853	0.766288	0.978169	0.967145	-0.144621	0.259398	1.0114	0.0198837	0	0	-0.0205699	0.159962	-0.26373	0.357421	-0.0144842	0	0	-0.0477679	-0.179185	0.100098	0.0123913	-0.561711	0.805942	0.860991	0.810019	0	0	-0.00277323	-0.425665	0.533484	0.804525	1.03069	0	0
1.76	-0.64405	1.3323	2.31315	0.570691	0.778823	0.976786	0.957554	-0.138575	0.263927	1.01896	0.0118218	0	0	-0.0301979	0.151462	-0.271417	0.374437	-0.00998684	0	0	-0.0491488	-0.175009	0.0992694	0.00623737	-0.562336	0.801936	0.865164	0.81276	0	0	-0.00741618	-0.425949	0.53108	0.804403	1.0321	0	0
1.77	-0.642479	1.3372	2.31362	0.570622	0.79166	0.975442	0.945775	-0.131785	0.268208	1.02811	0.00492201	0	0	-0.0394685	0.141687	-0.279088	0.393175	-0.00662191	0	0	-0.05029	-0.170239	0.0979118	-0.000461229	-0.56249	0.797543	0.869182	0.816283	0	0	-0.0125192	-0.42674	0.529192	0.804202	1.03311	0	0
1.78	-0.639888	1.34258	2.31321	0.570588	0.804748	0.974094	0.933213	-0.124704	0.27108	1.03853	0.001172	0	0	-0.0482382	0.13078	-0.287708	0.414165	-0.00368395	0	0	-0.0509077	-0.164829	0.0971899	-0.0089209	-0.562651	0.791556	0.873694	0.821343	0	0	-0.0174838	-0.42733	0.528205	0.803301	1.03407	0	0
1.79	-0.637882	1.34749	2.3132	0.570641	0.817985	0.972682	0.923492	-0.118262	0.273656	1.05097	-0.0045029	0	0	-0.0567949	0.120745	-0.293139	0.434629	-0.00360054	0	0	-0.0494618	-0.15984	0.0945717	-0.0129068	-0.563188	0.796017	0.876597	0.817395	0	0	-0.0247164	-0.42886	0.527149	0.802665	1.03066	0	0
1.8	-0.6332	1.3515	2.30969	0.570934	0.831307	0.971092	0.918464	-0.110494	0.277052	1.06545	-0.0176594	0	0	-0.0615179	0.109305	-0.302266	0.461487	-0.00237909	0	0	-0.0476814	-0.155371	0.0924027	-0.0186587	-0.562998	0.795996	0.880586	0.820204	0	0	-0.0341393	-0.429748	0.519878	0.803486	1.03233	0	0
1.81	-0.624451	1.35436	2.3013	0.571527	0.844644	0.969436	0.916929	-0.101211	0.281808	1.08079	-0.0379321	0	0	-0.0615	0.0966512	-0.312496	0.494821	-0.00226742	0	0	-0.0442188	-0.15142	0.09151	-0.0252678	-0.562102	0.794182	0.884385	0.822122	0	0	-0.0436681	-0.430833	0.512113	0.80422	1.03471	0	0
1.82	-0.61087	1.35627	2.28758	0.572385	0.857944	0.967888	0.915805	-0.0915403	0.286811	1.09414	-0.0583916	0	0	-0.0569091	0.0832451	-0.320298	0.533384	-0.00433127	0	0	-0.0390635	-0.147555	0.091793	-0.032596	-0.5602	0.790774	0.887364	0.824012	0	0	-0.0524681	-0.432	0.505381	0.80402	1.03695	0	0
1.83	-0.59361	1.35774	2.26975	0.573446	0.87116	0.966558	0.912957	-0.0826476	0.29045	1.1035	-0.0765723	0	0	-0.0489009	0.0693808	-0.324424	0.575508	-0.00934406	0	0	-0.0365147	-0.143239	0.106299	-0.0640208	-0.555054	0.742689	0.897228	0.854462	0	0	-0.044509	-0.433872	0.52272	0.798549	1.03306	0	0
1.84	-0.572355	1.35878	2.24755	0.574574	0.88435	0.965572	0.908314	-0.0749828	0.291157	1.10874	-0.0929463	0	0	-0.0378993	0.0544345	-0.326816	0.62025	-0.0208089	0	0	-0.0258869	-0.139481	0.0889543	-0.0362279	-0.555487	0.801871	0.887343	0.817131	0	0	-0.0747021	-0.432765	0.481693	0.803698	1.04651	0	0
1.85	-0.551527	1.36028	2.22545	0.575771	0.897416	0.965021	0.902328	-0.068113	0.288968	1.11376	-0.106242	0	0	-0.0241627	0.039104	-0.325785	0.669426	-0.0351619	0	0	-0.0194626	-0.134863	0.0905783	-0.0390186	-0.553097	0.806208	0.886577	0.814846	0	0	-0.0807964	-0.433144	0.478204	0.80048	1.04705	0	0
1.86	-0.530964	1.36241	2.20317	0.577058	0.910298	0.965016	0.896481	-0.0611564	0.284615	1.12187	-0.116531	0	0	-0.00723007	0.0231707	-0.321677	0.723706	-0.0540926	0	0	-0.01417	-0.129929	0.0929906	-0.0403971	-0.550553	0.811881	0.884468	0.810248	0	0	-0.0847143	-0.43297	0.476575	0.795523	1.04719	0	0
1.87	-0.511076	1.36504	2.18121	0.578425	0.922931	0.965536	0.891365	-0.0538636	0.279631	1.13372	-0.123312	0	0	0.0130144	0.00719631	-0.313693	0.782205	-0.0769305	0	0	-0.0103169	-0.124934	0.0962132	-0.0404713	-0.547661	0.818212	0.880822	0.803748	0	0	-0.0862624	-0.432295	0.476726	0.788894	1.04731	0	0
1.88	-0.493531	1.36715	2.16092	0.579723	0.935259	0.966379	0.88579	-0.0465906	0.273861	1.14377	-0.127081	0	0	0.0368423	-0.00728613	-0.302358	0.843326	-0.105322	0	0	-0.00689499	-0.120602	0.100609	-0.0387692	-0.544877	0.827237	0.875718	0.796875	0	0	-0.0856852	-0.43112	0.478915	0.780859	1.0468	0	0
1.89	-0.479878	1.36851	2.14403	0.5809	0.94722	0.967497	0.878815	-0.0407248	0.267569	1.15046	-0.128526	0	0	0.0637087	-0.0195792	-0.288707	0.90508	-0.137484	0	0	-0.00399913	-0.117519	0.10645	-0.0364029	-0.542257	0.836888	0.870006	0.790475	0	0	-0.0827535	-0.429774	0.483621	0.771913	1.04551	0	0
1.9	-0.47219	1.36901	2.13262	0.581955	0.958803	0.968885	0.870304	-0.0377822	0.261021	1.15473	-0.12766	0	0	0.0926626	-0.0290675	-0.274246	0.96572	-0.17246	0	0	-0.00206779	-0.116021	0.113415	-0.0333605	-0.539763	0.846988	0.864061	0.786211	0	0	-0.0777172	-0.428495	0.490611	0.762452	1.04356	0	0
1.91	-0.472935	1.36858	2.12897	0.582872	0.970001	0.970515	0.860568	-0.0386297	0.253794	1.1575	-0.124311	0	0	0.122549	-0.0349846	-0.260509	1.02397	-0.207565	0	0	-0.00150313	-0.116629	0.121957	-0.0314252	-0.53755	0.852951	0.859236	0.781257	0	0	-0.0704734	-0.427328	0.499445	0.753027	1.04138	0	0
